<?xml version="1.0" encoding="iso-8859-1"?>
<!-- Generator: Adobe Illustrator 19.0.0, SVG Export Plug-In . SVG Version: 6.00 Build 0)  -->
<svg version="1.1" id="Layer_1" xmlns="http://www.w3.org/2000/svg" xmlns:xlink="http://www.w3.org/1999/xlink" x="0px" y="0px"
	 viewBox="0 0 512 512" style="enable-background:new 0 0 512 512;" xml:space="preserve">
<g>
	<g>
		<path d="M225.967,93.44V33.223H70.253V93.44H0v122.516v262.821h512V215.956V93.44H225.967z M85.461,48.431h125.298V93.44H85.461
			V48.431z M496.792,215.956H386.426v15.208h110.366v232.405H15.208V231.164h70.545c-8.502,16.477-13.308,35.16-13.308,54.944
			c0,66.292,53.933,120.226,120.226,120.226S312.897,352.4,312.897,286.108c0-19.784-4.807-38.466-13.308-54.944h66.558v-15.208
			h-75.9c-21.85-30.306-57.445-50.074-97.576-50.074s-75.726,19.768-97.576,50.074H15.208V108.648h55.046h155.714h270.825V215.956z
			 M87.653,286.108c0-57.907,47.111-105.018,105.018-105.018c57.907,0,105.018,47.111,105.018,105.018
			s-47.111,105.018-105.018,105.018C134.764,391.126,87.653,344.015,87.653,286.108z"/>
	</g>
</g>
<g>
	<g>
		<path d="M336.213,134.625v55.354h115.57v-55.354H336.213z M436.575,174.771h-85.154v-24.938h85.154V174.771z"/>
	</g>
</g>
<g>
	<g>
		<path d="M192.671,194.959c-50.26,0-91.15,40.889-91.15,91.149c0,50.26,40.89,91.149,91.15,91.149
			c50.26,0,91.149-40.89,91.149-91.149C283.82,235.848,242.93,194.959,192.671,194.959z M192.671,362.049
			c-41.875,0-75.942-34.068-75.942-75.941c0-41.874,34.068-75.941,75.942-75.941s75.941,34.068,75.941,75.941
			C268.612,327.983,234.545,362.049,192.671,362.049z"/>
	</g>
</g>
<g>
	<g>
		<path d="M131.936,286.108h15.208c0-25.103,20.423-45.525,45.526-45.525v-15.208C159.181,225.375,131.936,252.619,131.936,286.108z
			"/>
	</g>
</g>
<g>
</g>
<g>
</g>
<g>
</g>
<g>
</g>
<g>
</g>
<g>
</g>
<g>
</g>
<g>
</g>
<g>
</g>
<g>
</g>
<g>
</g>
<g>
</g>
<g>
</g>
<g>
</g>
<g>
</g>
</svg>
