<?xml version="1.0" encoding="iso-8859-1"?>
<!-- Generator: Adobe Illustrator 19.0.0, SVG Export Plug-In . SVG Version: 6.00 Build 0)  -->
<svg version="1.1" id="Layer_1" xmlns="http://www.w3.org/2000/svg" xmlns:xlink="http://www.w3.org/1999/xlink" x="0px" y="0px"
	 viewBox="0 0 512.042 512.042" style="enable-background:new 0 0 512.042 512.042;" xml:space="preserve">
<g>
	<g>
		<g>
			<path d="M509.41,285.857l-8.544-19.961c-0.062-0.145-0.148-0.274-0.217-0.415c-1.405-3.563-3.674-7.096-7-10.449
				c-13.832-13.941-43.274-21.605-92.647-21.5c-0.306,0-0.616,0.002-0.924,0.003c-1.215,0.005-2.437,0.013-3.676,0.027
				c-0.841,0.009-1.692,0.022-2.544,0.036c-0.715,0.012-1.429,0.023-2.151,0.038c-1.378,0.027-2.773,0.062-4.179,0.1
				c-0.129,0.004-0.253,0.005-0.382,0.009l-39.094-18.396l0.283-0.481c2.388-4.063,1.029-9.293-3.034-11.68
				s-9.293-1.029-11.68,3.034l-1.076,1.83l-19.089-8.982l0.745-1.268c2.388-4.063,1.029-9.293-3.034-11.68
				c-4.063-2.388-9.293-1.029-11.68,3.034l-1.538,2.618l-19.089-8.982l1.208-2.055c2.388-4.063,1.029-9.293-3.034-11.68
				c-4.063-2.388-9.293-1.029-11.68,3.034l-2.001,3.405l-19.089-8.982l1.67-2.843c2.388-4.063,1.029-9.293-3.034-11.68
				c-4.063-2.388-9.293-1.029-11.68,3.034l-2.463,4.192l-22.792-10.725c-3.898-1.834-8.553-0.475-10.851,3.169
				c-0.889,1.41-2.811,4.099-5.736,7.639c-4.949,5.989-10.852,11.994-17.669,17.592c-4.23,3.474-8.584,6.616-13.051,9.434
				c-0.322,0.146-0.643,0.305-0.957,0.496c-27.349,16.639-58.866,20.838-95.056,7.716c-0.322-0.117-0.645-0.208-0.968-0.285
				c-8.825-3.316-17.923-7.646-27.313-13.115c-1.182-0.688-2.438-1.044-3.685-1.133c-6.901-1.739-13.609-11.559-13.609-20.661
				c0-4.713-3.82-8.533-8.533-8.533s-8.533,3.821-8.533,8.533c0,14.104,8.42,28.597,20.317,34.84
				c-0.567,3.004-1.178,6.241-1.829,9.673c-2.406,12.69-4.838,25.379-7.141,37.219c-0.323,1.661-0.323,1.661-0.647,3.32
				c-5.292,27.113-9.114,45.528-10.229,48.988c-0.219,0.633-0.365,1.3-0.429,1.993c-0.012,0.127-0.014,0.252-0.02,0.379
				c-0.007,0.139-0.022,0.276-0.022,0.417v50.901c0,4.64,3.707,8.43,8.346,8.531c0.878,0.019,0.878,0.019,5.054,0.112
				c5.714,0.127,8.902,0.198,14.287,0.319c15.386,0.346,32.531,0.738,50.995,1.167c52.753,1.226,105.506,2.508,154.74,3.781
				c25.951,0.671,50.263,1.324,72.639,1.952c14.707,0.413,28.514,0.813,41.355,1.201c70.483,2.135,118.744-10.72,149.103-32.552
				C510.725,321.348,515.591,302.632,509.41,285.857z M232.252,298.179c-1.132-0.022-2.269-0.047-3.404-0.07
				c-21.117-0.441-42.959-1.099-65.382-1.957c3.4-10.084,12.935-17.346,24.167-17.346h68.471c12.171,0,22.35,8.528,24.889,19.933
				c-1.489-0.003-2.984-0.008-4.486-0.014c-0.279-0.001-0.557-0.002-0.836-0.003c-1.26-0.006-2.53-0.013-3.8-0.021
				c-1.125-0.007-2.25-0.014-3.381-0.022c-0.796-0.006-1.594-0.012-2.393-0.019c-1.708-0.014-3.421-0.03-5.141-0.047
				c-0.395-0.004-0.789-0.008-1.185-0.012c-3.279-0.035-6.585-0.077-9.906-0.124c-1.713-0.024-3.428-0.049-5.15-0.076
				c-1.26-0.02-2.526-0.041-3.791-0.063c-1.456-0.025-2.915-0.051-4.377-0.078C235.118,298.234,233.689,298.207,232.252,298.179z
				 M392.313,250.696c0.666-0.013,1.329-0.026,1.987-0.037c0.699-0.011,1.403-0.023,2.093-0.031c0.547-0.007,1.083-0.01,1.624-0.014
				c46.722-0.379,72.993,6.198,83.157,16.443c3.221,3.247,4.093,6.151,3.771,8.721c-10.292,9.508-45.696,16.696-99.856,20.248l0,0
				L392.313,250.696z M182.538,190.079c7.714-6.334,14.379-13.114,19.994-19.91c0.943-1.141,1.804-2.216,2.583-3.218l14.958,7.039
				l-5.562,9.465c-2.388,4.063-1.029,9.293,3.034,11.68s9.293,1.029,11.68-3.034l6.355-10.815l19.089,8.982l-6.025,10.252
				c-2.388,4.063-1.029,9.293,3.034,11.68c4.063,2.388,9.293,1.029,11.68-3.034l6.818-11.602l19.089,8.982l-6.487,11.04
				c-2.388,4.063-1.029,9.293,3.034,11.68s9.293,1.029,11.68-3.034l7.28-12.389l19.089,8.982l-6.95,11.827
				c-2.388,4.063-1.029,9.293,3.034,11.68c4.063,2.388,9.293,1.029,11.68-3.034l7.743-13.176l36.224,17.045l-7.944,49.848
				c-20.876,0.996-44.087,1.562-69.357,1.696c-2.738-20.863-20.574-36.976-42.187-36.976h-68.471
				c-20.472,0-37.561,14.455-41.636,33.711c-15.678-0.664-31.485-1.414-47.348-2.244c-23.192-1.214-44.945-2.514-64.632-3.814
				c-5.417-0.358-10.361-0.695-14.811-1.007c1.936-8.837,4.708-22.595,8.246-40.722c0.325-1.664,0.325-1.664,0.649-3.331
				c2.309-11.87,4.745-24.584,7.156-37.298c0.353-1.859,0.694-3.663,1.023-5.404c5.037,2.576,10.008,4.843,14.921,6.845v2.07
				c0,23.563,19.104,42.667,42.667,42.667h34.133c23.563,0,42.667-19.104,42.667-42.667v-11.664
				C174.718,196.182,178.678,193.249,182.538,190.079z M153.602,208.52v2.025c0,14.137-11.463,25.6-25.6,25.6H93.869
				c-12.802,0-23.405-9.402-25.295-21.676C99.812,223.26,128.284,220.386,153.602,208.52z M486.549,317.732
				c-27.112,19.497-71.692,31.372-138.617,29.344c-12.855-0.388-26.674-0.788-41.392-1.202c-22.39-0.628-46.714-1.281-72.677-1.953
				c-49.251-1.274-102.018-2.556-154.785-3.782c-18.468-0.429-35.617-0.821-51.008-1.167c-4.264-0.096-7.15-0.161-11.004-0.246
				v-33.379c4.713,0.332,9.999,0.693,15.825,1.078c19.758,1.305,41.585,2.609,64.855,3.827
				c52.015,2.722,103.454,4.606,151.681,5.288c0.059,0.001,0.118,0.002,0.177,0.003c0.877,0.012,1.762,0.027,2.637,0.039
				c11.999,0.159,23.601,0.243,34.817,0.254c0.053,0,0.106,0,0.158,0c1.798,0.002,3.586,0.001,5.364-0.001
				c0.118,0,0.235,0,0.353-0.001c1.745-0.003,3.48-0.007,5.205-0.013c0.109,0,0.216-0.001,0.325-0.001
				c10.852-0.041,21.314-0.158,31.372-0.354c0.042-0.001,0.084-0.002,0.126-0.002c1.393-0.027,2.774-0.057,4.151-0.088
				c0.381-0.008,0.765-0.016,1.146-0.025c1.238-0.028,2.466-0.058,3.691-0.089c0.498-0.012,0.997-0.025,1.492-0.038
				c1.147-0.03,2.287-0.061,3.423-0.093c0.575-0.016,1.15-0.033,1.723-0.049c1.076-0.032,2.147-0.065,3.213-0.098
				c0.613-0.019,1.225-0.039,1.835-0.059c1.025-0.034,2.047-0.068,3.063-0.104c0.648-0.023,1.293-0.046,1.938-0.07
				c0.975-0.036,1.949-0.072,2.915-0.109c0.67-0.026,1.334-0.053,1.999-0.08c0.94-0.038,1.881-0.076,2.813-0.116
				c0.668-0.028,1.328-0.058,1.991-0.088c0.921-0.041,1.843-0.081,2.755-0.124c0.681-0.032,1.353-0.065,2.029-0.098
				c0.879-0.042,1.761-0.084,2.632-0.128c0.753-0.038,1.495-0.079,2.241-0.118c1.343-0.071,2.676-0.144,4-0.219
				c0.927-0.053,1.856-0.105,2.773-0.159c0.615-0.037,1.221-0.075,1.832-0.113c0.891-0.055,1.783-0.109,2.664-0.166
				c0.628-0.04,1.247-0.082,1.87-0.124c0.849-0.056,1.699-0.113,2.54-0.171c0.624-0.043,1.241-0.088,1.86-0.132
				c0.836-0.06,1.672-0.12,2.499-0.181c0.597-0.044,1.19-0.09,1.782-0.135c0.837-0.064,1.67-0.129,2.497-0.195
				c0.576-0.046,1.148-0.093,1.719-0.139c0.838-0.069,1.671-0.139,2.5-0.21c0.545-0.047,1.089-0.094,1.63-0.141
				c0.853-0.075,1.699-0.151,2.542-0.228c0.501-0.046,1.003-0.092,1.5-0.138c0.888-0.083,1.767-0.169,2.643-0.254
				c0.442-0.043,0.887-0.086,1.326-0.13c0.947-0.095,1.884-0.192,2.817-0.29c0.358-0.038,0.72-0.074,1.076-0.112
				c1.137-0.121,2.262-0.245,3.378-0.371c0.139-0.016,0.282-0.031,0.421-0.047c2.584-0.294,5.11-0.6,7.578-0.918
				c0.099-0.013,0.196-0.026,0.295-0.039c1.104-0.143,2.198-0.289,3.279-0.437c0.25-0.034,0.495-0.07,0.744-0.104
				c0.931-0.129,1.856-0.26,2.77-0.393c0.291-0.042,0.578-0.086,0.867-0.128c0.86-0.127,1.714-0.256,2.557-0.386
				c0.313-0.049,0.624-0.098,0.935-0.147c0.812-0.128,1.617-0.257,2.414-0.388c0.317-0.052,0.632-0.105,0.947-0.157
				c0.788-0.132,1.568-0.265,2.342-0.4c0.301-0.053,0.602-0.105,0.901-0.158c0.787-0.14,1.565-0.281,2.336-0.425
				c0.27-0.05,0.542-0.1,0.81-0.151c0.81-0.153,1.61-0.308,2.403-0.465c0.215-0.043,0.433-0.085,0.648-0.127
				c0.873-0.175,1.734-0.352,2.586-0.532c0.126-0.027,0.256-0.053,0.382-0.079c3.978-0.845,7.72-1.743,11.222-2.695
				c0.119-0.032,0.234-0.065,0.352-0.098c0.737-0.202,1.465-0.406,2.18-0.613c0.175-0.051,0.346-0.102,0.52-0.153
				c0.651-0.191,1.295-0.383,1.928-0.578c0.2-0.061,0.396-0.124,0.594-0.185c0.6-0.188,1.193-0.377,1.776-0.569
				c0.205-0.067,0.408-0.135,0.611-0.203c0.569-0.19,1.13-0.382,1.682-0.576c0.199-0.07,0.397-0.139,0.594-0.21
				c0.55-0.196,1.09-0.395,1.624-0.595c0.184-0.069,0.369-0.138,0.551-0.207c0.548-0.209,1.085-0.421,1.615-0.634
				c0.154-0.062,0.31-0.123,0.462-0.185c0.571-0.233,1.128-0.469,1.678-0.706c0.101-0.044,0.206-0.087,0.306-0.131
				c1.975-0.864,3.813-1.76,5.51-2.688c0.045-0.025,0.088-0.05,0.133-0.075c0.503-0.277,0.995-0.557,1.473-0.84
				c0.126-0.074,0.245-0.15,0.369-0.225c0.391-0.236,0.777-0.473,1.15-0.712c0.152-0.097,0.298-0.196,0.447-0.294
				c0.226-0.149,0.459-0.296,0.678-0.446l0.423,0.986C497.023,301.602,494.277,312.164,486.549,317.732z"/>
			<path d="M196.268,244.676h51.2c4.713,0,8.533-3.82,8.533-8.533s-3.82-8.533-8.533-8.533h-51.2c-4.713,0-8.533,3.82-8.533,8.533
				S191.556,244.676,196.268,244.676z"/>
		</g>
	</g>
</g>
<g>
</g>
<g>
</g>
<g>
</g>
<g>
</g>
<g>
</g>
<g>
</g>
<g>
</g>
<g>
</g>
<g>
</g>
<g>
</g>
<g>
</g>
<g>
</g>
<g>
</g>
<g>
</g>
<g>
</g>
</svg>
